<?xml version="1.0" encoding="UTF-8" standalone="no"?>
<svg
   xmlns:dc="http://purl.org/dc/elements/1.1/"
   xmlns:cc="http://creativecommons.org/ns#"
   xmlns:rdf="http://www.w3.org/1999/02/22-rdf-syntax-ns#"
   xmlns:svg="http://www.w3.org/2000/svg"
   xmlns="http://www.w3.org/2000/svg"
   xmlns:sodipodi="http://sodipodi.sourceforge.net/DTD/sodipodi-0.dtd"
   xmlns:inkscape="http://www.inkscape.org/namespaces/inkscape"
   width="480pt"
   height="290pt"
   viewBox="0 0 480 290"
   version="1.1"
   id="svg3434"
   inkscape:version="0.91 r13725"
   sodipodi:docname="SVGlogo_NEW.svg">
  <metadata
     id="metadata3492">
    <rdf:RDF>
      <cc:Work
         rdf:about="">
        <dc:format>image/svg+xml</dc:format>
        <dc:type
           rdf:resource="http://purl.org/dc/dcmitype/StillImage" />
        <dc:title />
      </cc:Work>
    </rdf:RDF>
  </metadata>
  <defs
     id="defs3490" />
  <sodipodi:namedview
     pagecolor="#ffffff"
     bordercolor="#666666"
     borderopacity="1"
     objecttolerance="10"
     gridtolerance="10"
     guidetolerance="10"
     inkscape:pageopacity="0"
     inkscape:pageshadow="2"
     inkscape:window-width="1893"
     inkscape:window-height="1058"
     id="namedview3488"
     showgrid="false"
     inkscape:zoom="2.6289655"
     inkscape:cx="300"
     inkscape:cy="181.25"
     inkscape:window-x="0"
     inkscape:window-y="23"
     inkscape:window-maximized="0"
     inkscape:current-layer="surface4"
     inkscape:snap-text-baseline="true"
     showguides="false" />
  <g
     id="surface2"
     transform="matrix(2.0653592298743226,0,0,2.0653592298743226,-259.6862151698376,-33.62089376919165)">
    <path
       style="stroke:none;fill-rule:evenodd;fill:rgb(20.000000%,60.000000%,40.000000%);fill-opacity:1"
       d="M 268.250000 131.601562 L 269.800781 130.699219 L 268.250000 129.800781 L 268.250000 131.601562 "
       id="path3437" />
    <path
       style="stroke:none;fill-rule:evenodd;fill:rgb(20.000000%,60.000000%,40.000000%);fill-opacity:1"
       d="M 252.800781 136.449219 L 256.250000 138.550781 L 263.800781 134.199219 L 263.800781 127.101562 L 252.800781 120.550781 L 252.800781 136.449219 "
       id="path3439" />
    <path
       style="stroke:none;fill-rule:evenodd;fill:rgb(20.000000%,60.000000%,40.000000%);fill-opacity:1"
       d="M 268.250000 124.550781 L 274.250000 128.148438 L 279.250000 125.300781 L 279.250000 115.199219 L 268.250000 108.648438 L 268.250000 124.550781 "
       id="path3441" />
    <path
       style="stroke:none;fill-rule:evenodd;fill:rgb(100.000000%,54.901961%,0.000000%);fill-opacity:1"
       d="M 201.550781 88.898438 L 212.500000 82.300781 L 212.500000 66.398438 L 201.550781 72.949219 L 201.550781 88.898438 "
       id="path3443" />
    <path
       style="stroke:none;fill-rule:evenodd;fill:rgb(20.000000%,60.000000%,40.000000%);fill-opacity:1"
       d="M 201.550781 110.101562 L 212.500000 103.500000 L 212.500000 87.601562 L 201.550781 94.148438 L 201.550781 110.101562 "
       id="path3445" />
    <path
       style="stroke:none;fill-rule:evenodd;fill:rgb(33.725490%,62.745098%,82.745098%);fill-opacity:1"
       d="M 212.550781 131.500000 L 212.550781 129.949219 L 211.199219 130.750000 L 212.550781 131.500000 "
       id="path3447" />
    <path
       style="stroke:none;fill-rule:evenodd;fill:rgb(20.000000%,60.000000%,40.000000%);fill-opacity:1"
       d="M 232.500000 139.199219 L 232.500000 143.050781 L 240.500000 147.648438 L 248.300781 143.148438 L 248.300781 139.050781 L 240.500000 134.398438 L 232.500000 139.199219 "
       id="path3449" />
    <path
       style="stroke:none;fill-rule:evenodd;fill:rgb(20.000000%,60.000000%,40.000000%);fill-opacity:1"
       d="M 201.550781 125.148438 L 206.750000 128.148438 L 212.500000 124.648438 L 212.500000 108.750000 L 201.550781 115.300781 L 201.550781 125.148438 "
       id="path3451" />
    <path
       style="stroke:none;fill-rule:evenodd;fill:rgb(20.000000%,60.000000%,40.000000%);fill-opacity:1"
       d="M 240.500000 25.250000 L 187.500000 55.851562 L 187.500000 117.050781 L 197.050781 122.601562 L 197.050781 60.101562 L 201.550781 60.101562 L 201.550781 67.750000 L 212.550781 61.148438 L 212.550781 50.550781 L 217.050781 50.550781 L 217.050781 58.500000 L 228.000000 51.898438 L 228.000000 41.050781 L 232.500000 41.050781 L 232.500000 49.199219 L 240.500000 44.449219 L 248.300781 49.101562 L 248.300781 41.050781 L 252.800781 41.050781 L 252.800781 51.800781 L 263.750000 58.351562 L 263.750000 50.550781 L 268.250000 50.550781 L 268.250000 61.050781 L 279.250000 67.601562 L 279.250000 60.101562 L 283.699219 60.101562 L 283.699219 122.699219 L 293.500000 117.050781 L 293.500000 55.851562 L 240.500000 25.250000 "
       id="path3453" />
    <path
       style="stroke:none;fill-rule:evenodd;fill:rgb(20.000000%,60.000000%,40.000000%);fill-opacity:1"
       d="M 217.050781 79.648438 L 228.050781 73.050781 L 228.050781 57.148438 L 217.050781 63.699219 L 217.050781 79.648438 "
       id="path3455" />
    <path
       style="stroke:none;fill-rule:evenodd;fill:rgb(20.000000%,60.000000%,40.000000%);fill-opacity:1"
       d="M 217.050781 134.101562 L 224.750000 138.550781 L 228.050781 136.601562 L 228.050781 120.699219 L 217.050781 127.250000 L 217.050781 134.101562 "
       id="path3457" />
    <path
       style="stroke:none;fill-rule:evenodd;fill:rgb(20.000000%,60.000000%,40.000000%);fill-opacity:1"
       d="M 252.800781 94.101562 L 263.800781 100.699219 L 263.800781 84.750000 L 252.800781 78.199219 L 252.800781 94.101562 "
       id="path3459" />
    <path
       style="stroke:none;fill-rule:evenodd;fill:rgb(20.000000%,60.000000%,40.000000%);fill-opacity:1"
       d="M 252.800781 115.250000 L 263.800781 121.851562 L 263.800781 105.898438 L 252.800781 99.351562 L 252.800781 115.250000 "
       id="path3461" />
    <path
       style="stroke:none;fill-rule:evenodd;fill:rgb(100.000000%,54.901961%,0.000000%);fill-opacity:1"
       d="M 268.250000 82.199219 L 279.250000 88.800781 L 279.250000 72.851562 L 268.250000 66.300781 L 268.250000 82.199219 "
       id="path3463" />
    <path
       style="stroke:none;fill-rule:evenodd;fill:rgb(20.000000%,60.000000%,40.000000%);fill-opacity:1"
       d="M 217.050781 100.800781 L 228.050781 94.199219 L 228.050781 78.300781 L 217.050781 84.851562 L 217.050781 100.800781 "
       id="path3465" />
    <path
       style="stroke:none;fill-rule:evenodd;fill:rgb(20.000000%,60.000000%,40.000000%);fill-opacity:1"
       d="M 268.250000 103.351562 L 279.250000 109.949219 L 279.250000 94.000000 L 268.250000 87.449219 L 268.250000 103.351562 "
       id="path3467" />
    <path
       style="stroke:none;fill-rule:evenodd;fill:rgb(20.000000%,60.000000%,40.000000%);fill-opacity:1"
       d="M 252.800781 72.898438 L 263.800781 79.500000 L 263.800781 63.550781 L 252.800781 57.000000 L 252.800781 72.898438 "
       id="path3469" />
    <path
       style="stroke:none;fill-rule:evenodd;fill:rgb(20.000000%,60.000000%,40.000000%);fill-opacity:1"
       d="M 232.500000 118.000000 L 232.500000 133.898438 L 240.500000 129.101562 L 248.300781 133.800781 L 248.300781 117.851562 L 240.500000 113.199219 L 232.500000 118.000000 "
       id="path3471" />
    <path
       style="stroke:none;fill-rule:evenodd;fill:rgb(20.000000%,60.000000%,40.000000%);fill-opacity:1"
       d="M 232.500000 75.648438 L 232.500000 91.550781 L 240.500000 86.750000 L 248.300781 91.449219 L 248.300781 75.500000 L 240.500000 70.851562 L 232.500000 75.648438 "
       id="path3473" />
    <path
       style="stroke:none;fill-rule:evenodd;fill:rgb(20.000000%,60.000000%,40.000000%);fill-opacity:1"
       d="M 232.500000 54.449219 L 232.500000 70.351562 L 240.500000 65.550781 L 248.300781 70.250000 L 248.300781 54.300781 L 240.500000 49.648438 L 232.500000 54.449219 "
       id="path3475" />
    <path
       style="stroke:none;fill-rule:evenodd;fill:rgb(20.000000%,60.000000%,40.000000%);fill-opacity:1"
       d="M 217.050781 122.000000 L 228.050781 115.398438 L 228.050781 99.500000 L 217.050781 106.050781 L 217.050781 122.000000 "
       id="path3477" />
    <path
       style="stroke:none;fill-rule:evenodd;fill:rgb(100.000000%,54.901961%,0.000000%);fill-opacity:1"
       d="M 232.500000 96.851562 L 232.500000 112.750000 L 240.500000 107.949219 L 248.300781 112.648438 L 248.300781 96.699219 L 240.500000 92.050781 L 232.500000 96.851562 "
       id="path3479" />
    <path
       style="stroke:none;fill-rule:evenodd;fill:rgb(0.000000%,0.000000%,0.000000%);fill-opacity:1"
       d="M 293.500000 117.050781 L 283.750000 122.699219 L 283.750000 60.101562 L 279.250000 60.101562 L 279.250000 67.601562 L 268.250000 61.050781 L 268.250000 50.550781 L 263.750000 50.550781 L 263.750000 58.351562 L 252.800781 51.800781 L 252.800781 41.050781 L 248.300781 41.050781 L 248.300781 49.101562 L 240.500000 44.449219 L 232.500000 49.199219 L 232.500000 41.050781 L 228.000000 41.050781 L 228.000000 51.898438 L 217.050781 58.500000 L 217.050781 50.550781 L 212.550781 50.550781 L 212.550781 61.148438 L 201.550781 67.750000 L 201.550781 60.101562 L 197.101562 60.101562 L 197.101562 122.601562 L 187.500000 117.050781 L 187.500000 55.851562 L 240.500000 25.250000 L 293.500000 55.851562 L 293.500000 117.050781 M 279.250000 115.199219 L 279.250000 125.300781 L 274.250000 128.148438 L 268.250000 124.550781 L 268.250000 108.648438 L 279.250000 115.199219 M 279.250000 94.050781 L 279.250000 109.949219 L 268.250000 103.398438 L 268.250000 87.449219 L 279.250000 94.050781 M 279.250000 88.800781 L 268.250000 82.199219 L 268.250000 66.300781 L 279.250000 72.851562 L 279.250000 88.800781 M 268.250000 131.648438 L 268.250000 129.851562 L 269.800781 130.750000 L 268.250000 131.648438 M 263.750000 127.148438 L 263.750000 134.250000 L 256.250000 138.550781 L 252.800781 136.500000 L 252.800781 120.550781 L 263.750000 127.148438 M 263.750000 105.949219 L 263.750000 121.898438 L 252.800781 115.300781 L 252.800781 99.398438 L 263.750000 105.949219 M 263.750000 84.800781 L 263.750000 100.699219 L 252.800781 94.148438 L 252.800781 78.199219 L 263.750000 84.800781 M 263.750000 79.550781 L 252.800781 72.949219 L 252.800781 57.050781 L 263.750000 63.601562 L 263.750000 79.550781 M 240.500000 113.199219 L 248.300781 117.898438 L 248.300781 133.800781 L 240.500000 129.148438 L 232.500000 133.949219 L 232.500000 118.000000 L 240.500000 113.199219 M 240.500000 92.050781 L 248.300781 96.699219 L 248.300781 112.648438 L 240.500000 107.949219 L 232.500000 112.750000 L 232.500000 96.851562 L 240.500000 92.050781 M 240.500000 70.851562 L 248.300781 75.550781 L 248.300781 91.449219 L 240.500000 86.800781 L 232.500000 91.601562 L 232.500000 75.648438 L 240.500000 70.851562 M 248.300781 70.250000 L 240.500000 65.601562 L 232.500000 70.398438 L 232.500000 54.500000 L 240.500000 49.699219 L 248.300781 54.351562 L 248.300781 70.250000 M 232.500000 143.050781 L 232.500000 139.199219 L 240.500000 134.398438 L 248.300781 139.050781 L 248.300781 143.148438 L 240.500000 147.648438 L 232.500000 143.050781 M 228.000000 120.699219 L 228.000000 136.601562 L 224.750000 138.550781 L 217.050781 134.101562 L 217.050781 127.250000 L 228.000000 120.699219 M 228.000000 99.500000 L 228.000000 115.449219 L 217.050781 122.000000 L 217.050781 106.101562 L 228.000000 99.500000 M 228.000000 78.351562 L 228.000000 94.250000 L 217.050781 100.851562 L 217.050781 84.898438 L 228.000000 78.351562 M 228.000000 73.101562 L 217.050781 79.648438 L 217.050781 63.750000 L 228.000000 57.148438 L 228.000000 73.101562 M 212.550781 129.949219 L 212.550781 131.500000 L 211.199219 130.750000 L 212.550781 129.949219 M 212.550781 108.800781 L 212.550781 124.699219 L 206.750000 128.148438 L 201.550781 125.199219 L 201.550781 115.351562 L 212.550781 108.800781 M 212.550781 87.601562 L 212.550781 103.500000 L 201.550781 110.101562 L 201.550781 94.148438 L 212.550781 87.601562 M 212.550781 82.351562 L 201.550781 88.898438 L 201.550781 73.000000 L 212.550781 66.398438 L 212.550781 82.351562 M 240.500000 17.851562 L 181.101562 52.148438 L 181.101562 120.750000 L 240.500000 155.050781 L 299.949219 120.750000 L 299.949219 52.148438 L 240.500000 17.851562 "
       id="path3481" />
  </g>
  <g
     id="surface4"
     transform="matrix(0.94952014,0,0,0.88227164,1.8995664,7.2600487)">
    <text
       style="font-size:85.49988556px;font-family:'Futura Md BT';fill:#ffffff"
       font-size="53"
       xml:space="preserve"
       id="text3484"
       x="131.6465"
       y="167.76842"><tspan
         style="font-style:normal;font-variant:normal;font-weight:bold;font-stretch:normal;font-size:74.29432678px;font-family:'Futura Md BT';-inkscape-font-specification:'Futura Md BT Bold'"
         id="tspan3361"><![CDATA[Ayres]]></tspan></text>
    <text
       style="font-size:24.41038322px;font-family:'Futura Md BT';fill:#ffffff"
       font-size="35"
       xml:space="preserve"
       id="text3486"
       x="182.56477"
       y="211.28801"><![CDATA[Data Team]]></text>
    <path
       style="fill:#339966;fill-opacity:1"
       d="m 222.10349,296.18614 -1.25039,-0.66681 1.53568,-0.86309 1.53567,-0.8631 0,1.54585 c 0,1.73972 -0.0786,1.7763 -1.82096,0.84715 z"
       id="path3494"
       inkscape:connector-curvature="0"
       transform="scale(0.8,0.8)" />
  </g>
  <path
     style="fill:#339966;fill-opacity:1"
     d="m 222.10349,296.18614 -1.25039,-0.66681 1.53568,-0.86309 1.53567,-0.8631 0,1.54585 c 0,1.73972 -0.0786,1.7763 -1.82096,0.84715 z"
     id="path3496"
     inkscape:connector-curvature="0"
     transform="scale(0.8,0.8)" />
</svg>
